<svg width="430" height="511" viewBox="0 0 430 511" fill="none" xmlns="http://www.w3.org/2000/svg">
<g clip-path="url(#clip0_71_1012)">
<path fill-rule="evenodd" clip-rule="evenodd" d="M352.421 236.119L382.238 259.917C382.238 259.917 382.785 271.68 383.058 272.774C383.332 273.868 380.596 289.186 380.596 289.186L369.381 305.052L345.309 326.662L334.368 256.361L352.421 236.119Z" fill="#59BBAA"/>
<path fill-rule="evenodd" clip-rule="evenodd" d="M271.984 190.111L366.856 159.683L351.962 260.012L345.826 291.096L271.984 190.111Z" fill="#6BB0A4"/>
<path fill-rule="evenodd" clip-rule="evenodd" d="M235.309 168.62L308.036 134.965L307.263 208.852L235.309 168.62Z" fill="#69C2B2"/>
<path d="M351.448 307.381C351.448 346.228 335.786 383.485 307.906 410.954C280.026 438.423 242.214 453.855 202.786 453.855C163.358 453.855 125.545 438.423 97.6653 410.954C69.7857 383.485 54.123 346.228 54.123 307.381C54.123 268.534 69.7857 231.277 97.6653 203.808C125.545 176.339 163.358 160.907 202.786 160.907C242.214 160.907 280.026 176.339 307.906 203.808C335.786 231.277 351.448 268.534 351.448 307.381Z" fill="#BAC159"/>
<path fill-rule="evenodd" clip-rule="evenodd" d="M169.64 434.185L156.513 459.063C155.278 460.925 149.967 457.987 151.005 456.186L165.522 430.983L169.64 434.185Z" fill="#E3E79A"/>
<path fill-rule="evenodd" clip-rule="evenodd" d="M234.13 430.027L238.631 457.794C238.766 460.023 232.757 460.876 232.5 458.813L228.915 429.95L234.13 430.027Z" fill="#E3E79A"/>
<path d="M349.542 307.514C349.542 346.361 333.879 383.617 305.999 411.087C278.12 438.556 240.307 453.988 200.879 453.988C161.451 453.988 123.638 438.556 95.7586 411.087C67.8789 383.617 52.2163 346.361 52.2163 307.514C52.2163 268.666 67.8789 231.41 95.7586 203.941C123.638 176.471 161.451 161.039 200.879 161.039C240.307 161.039 278.12 176.471 305.999 203.941C333.879 231.41 349.542 268.666 349.542 307.514Z" fill="url(#paint0_radial_71_1012)"/>
<g filter="url(#filter0_f_71_1012)">
<path fill-rule="evenodd" clip-rule="evenodd" d="M289.341 419.033C285.059 423.048 284.87 422.965 280.35 426.789C279.323 427.425 277.857 425.48 278.341 424.438C279.427 421.474 280.959 420.819 282.874 418.388C284.485 416.73 286.421 416.526 288.629 415.436C289.528 415.162 289.598 414.968 290.571 415.638C289.117 417.221 289.432 418.861 289.341 419.033Z" fill="black"/>
</g>
<g filter="url(#filter1_f_71_1012)">
<path fill-rule="evenodd" clip-rule="evenodd" d="M294.34 423.491C287.987 426.603 282.181 430.742 275.694 433.592C274.343 433.996 273.181 431.98 274.208 431.012C276.842 428.184 280.649 427.025 283.824 424.968C286.291 423.643 288.839 422.373 291.599 421.797C292.635 421.739 293.888 421.879 294.499 422.831C294.622 423.053 294.52 423.334 294.34 423.491Z" fill="black"/>
</g>
<g filter="url(#filter2_f_71_1012)">
<path fill-rule="evenodd" clip-rule="evenodd" d="M132.278 283.073C129.942 282.309 127.018 285.219 128.324 287.482C130.637 289.756 133.722 287.06 136.07 286.193C144.834 282.667 154.503 280.383 161.678 273.871C165.308 270.638 168.994 267.456 172.824 264.471C174.959 262.213 176.44 259.388 178.796 257.334C180.596 255.179 177.607 251.818 175.274 253.504C169.908 256.319 164.807 259.625 159.994 263.31C156.01 266.312 151.83 269.065 147.371 271.306C141.941 274.709 137.842 279.858 132.278 283.073Z" fill="black"/>
<path fill-rule="evenodd" clip-rule="evenodd" d="M132.278 283.073C129.942 282.309 127.018 285.219 128.324 287.482C130.637 289.756 133.722 287.06 136.07 286.193C144.834 282.667 154.503 280.383 161.678 273.871C165.308 270.638 168.994 267.456 172.824 264.471C174.959 262.213 176.44 259.388 178.796 257.334C180.596 255.179 177.607 251.818 175.274 253.504C169.908 256.319 164.807 259.625 159.994 263.31C156.01 266.312 151.83 269.065 147.371 271.306C141.941 274.709 137.842 279.858 132.278 283.073Z" stroke="black" stroke-width="1.53184"/>
</g>
<path fill-rule="evenodd" clip-rule="evenodd" d="M176.796 440.526L170.652 467.609C170.023 469.689 166.166 467.971 166.669 465.99L173.805 439.646C174.082 438.612 177.084 439.197 176.796 440.526Z" fill="#E3E79A"/>
<path d="M98.9412 229.449C100.049 228.717 100.79 227.756 100.595 227.304C100.4 226.852 99.3431 227.078 98.2348 227.811C97.1266 228.543 96.3863 229.504 96.5813 229.956C96.7764 230.408 97.8329 230.182 98.9412 229.449Z" fill="#61650A"/>
<path fill-rule="evenodd" clip-rule="evenodd" d="M90.3198 215.797L99.3512 227.343C99.9875 228.317 97.8496 229.935 97.2091 229.061L88.2502 216.834L90.3198 215.797Z" fill="#E3E79A"/>
<path fill-rule="evenodd" clip-rule="evenodd" d="M52.3763 185.862L59.2003 182.287C60.0672 187.493 57.4941 191.656 54.5287 195.7L65.3233 193.352C64.8256 197.111 62.6553 200.924 59.7268 204.761L70.7119 199.922C71.8479 205.843 70.3114 211.109 68.2243 216.239L77.1368 210.3C79.6678 216.24 80.4704 222.621 80.7617 229.132L90.1577 217.596L103.28 211.447C97.0758 209.553 91.1233 207.194 86.0234 203.26L93.9538 196.05C88.4917 196.814 83.0358 197.008 77.609 194.437L84.9904 184.934C80.5674 186.838 76.3552 188.008 72.6092 187.564L77.5397 177.631C72.9084 179.519 68.2598 180.996 63.456 178.864L68.5898 173.101C63.7556 173.087 58.7453 172.584 52.8712 169.583C53.8471 173.784 53.4021 181.698 52.3763 185.862Z" fill="#9FA63E"/>
<path d="M193.906 183.365C196.099 183.387 198 182.757 198.152 181.958C198.303 181.158 196.647 180.492 194.454 180.469C192.26 180.447 190.359 181.077 190.208 181.876C190.056 182.676 191.712 183.342 193.906 183.365Z" fill="#61650A"/>
<path fill-rule="evenodd" clip-rule="evenodd" d="M195.478 159.52L196.606 181.353C196.522 183.087 191.807 183.238 191.784 181.622L191.455 159.02L195.478 159.52Z" fill="#E3E79A"/>
<path fill-rule="evenodd" clip-rule="evenodd" d="M176.479 162.761C174.23 163.205 171.991 163.7 169.765 164.245L167.997 170.941C163.816 189.421 166.828 210.026 183.112 223.212C211.218 245.972 231.898 261.831 238.405 278.873C246.086 298.991 252.734 318.167 214.419 324.52C185.049 328.189 177.367 347.131 183.471 376.357C186.606 391.366 193.046 406.564 173.78 416.089C156 424.88 133.141 425.071 114.041 426.565C117.221 428.819 120.684 430.948 124.036 432.947C138.368 432.321 153.986 430.36 173.858 425.872C209.51 417.822 213.655 397.585 207.068 374.424C201.835 356.025 195.265 342.803 217.076 339.886C223.332 339.05 264.232 331.195 264.952 306.165C265.635 282.389 253.554 254.407 236.197 245.083C185.856 218.041 167.293 193.087 176.479 162.761Z" fill="url(#paint1_linear_71_1012)"/>
<path fill-rule="evenodd" clip-rule="evenodd" d="M63.9419 250.502C56.2042 268.543 52.2172 287.929 52.2168 307.515C52.2513 351.416 72.2691 392.987 106.759 420.781C110.044 419.567 116.152 417.501 118.868 416.589C122.076 415.511 126.545 416.229 128.54 413.495C132.342 408.287 128.933 400.588 128.54 394.153C128.153 387.799 126.67 381.546 126.219 375.196C125.762 368.764 125.984 362.301 125.833 355.854C125.72 351.082 125.752 346.304 125.444 341.541C125.117 336.496 125.285 331.314 123.897 326.453C122.202 320.519 118.531 315.341 115.774 309.821C112.733 303.733 111.111 296.632 106.49 291.636C103.306 288.195 97.6858 287.724 94.4957 284.288C91.2388 280.78 90.9141 275.256 87.9196 271.522C82.8793 265.236 73.649 262.864 69.3521 256.048C68.3054 254.388 64.6822 252.953 63.9419 250.502Z" fill="url(#paint2_radial_71_1012)"/>
<path fill-rule="evenodd" clip-rule="evenodd" d="M52.8871 107.795L67.446 105.074C66.1029 115.131 59.0255 121.332 51.2941 127.091L72.459 128.866C69.4242 135.493 63.2844 141.277 55.7374 146.678L78.6579 143.98C77.4061 155.504 71.6117 164.316 64.8817 172.569L84.613 166.68C85.9147 179.025 83.7909 191.206 80.6537 203.338L104.431 187.433L132.019 183.534C121.683 176.553 112.073 168.86 104.918 158.752L123.561 149.973C113.091 148.296 102.953 145.575 94.4287 137.788L113.356 124.486C104.153 125.49 95.7502 125.265 89.1158 122.335L103.781 106.86C94.2033 107.718 84.8262 107.81 77.199 101.182L89.8855 93.4855C81.0077 90.7343 72.0827 86.9827 62.9787 78.1536C62.4031 86.4244 57.1213 100.72 52.8871 107.795Z" fill="#91A846"/>
<path fill-rule="evenodd" clip-rule="evenodd" d="M105.743 184.219L115.831 210.535C116.451 212.684 111.609 214.452 110.925 212.484L101.354 184.958L105.743 184.219Z" fill="#E3E79A"/>
<path d="M143.173 239.02C145.214 238.216 146.738 236.917 146.578 236.119C146.417 235.322 144.632 235.327 142.591 236.131C140.55 236.936 139.026 238.235 139.186 239.032C139.347 239.83 141.132 239.825 143.173 239.02Z" fill="#61650A"/>
<path fill-rule="evenodd" clip-rule="evenodd" d="M135.599 209.433L145.56 235.738C146.139 237.896 140.421 239.933 139.758 237.963L130.473 210.4L135.599 209.433Z" fill="#E3E79A"/>
<path fill-rule="evenodd" clip-rule="evenodd" d="M79.4108 134.192L96.4315 130.71C94.2244 141.017 85.6333 147.677 76.3142 153.92L100.686 154.692C96.7444 161.589 89.2651 167.78 80.1827 173.649L106.876 169.78C104.679 181.577 97.403 190.834 89.0805 199.567L112.291 192.605C112.995 205.113 109.747 217.621 105.329 230.129L133.872 212.771L166.043 207.451C154.539 200.847 143.92 193.483 136.298 183.54L158.438 173.688C146.433 172.492 134.881 170.217 125.524 162.705L148.287 148.233C137.574 149.705 127.867 149.887 120.381 147.228L138.354 130.751C127.217 132.094 116.362 132.646 107.968 126.27L123.146 117.812C113.053 115.444 102.971 112.06 93.0117 103.514C91.8085 111.965 84.7691 126.78 79.4108 134.192Z" fill="#335F04"/>
<path fill-rule="evenodd" clip-rule="evenodd" d="M153.996 158.051L158.042 173.149C158.242 174.375 154.984 175.188 154.726 174.061L151.122 158.304L153.996 158.051Z" fill="#E3E79A"/>
<path fill-rule="evenodd" clip-rule="evenodd" d="M127.178 113.344L136.737 112.352C134.959 117.933 129.867 121.145 124.396 124.088L137.769 125.852C135.223 129.451 130.768 132.465 125.448 135.213L140.352 134.539C138.498 140.944 133.988 145.665 128.93 150.04L142.086 147.462C141.79 154.42 139.319 161.161 136.204 167.838L152.863 159.802L170.861 158.626C164.889 154.341 159.447 149.684 155.795 143.765L168.519 139.531C161.977 138.21 155.743 136.317 151.003 131.648L164.322 124.892C158.345 125.118 152.992 124.686 149.017 122.804L159.809 114.676C153.606 114.807 147.601 114.517 143.329 110.529L152.145 106.683C146.72 104.819 141.355 102.394 136.34 97.1199C135.216 101.729 130.532 109.538 127.178 113.344Z" fill="#91A846"/>
<path fill-rule="evenodd" clip-rule="evenodd" d="M172.141 97.8492L185.565 99.312C181.485 106.416 173.546 109.306 165.167 111.715L183.021 118.071C178.466 122.24 171.462 125.046 163.347 127.233L184.02 130.707C179.594 138.916 172.012 144.039 163.78 148.527L182.61 148.884C180.162 158.309 174.789 166.794 168.55 175.003L193.795 168.931L218.867 172.631C211.92 165.012 205.809 157.042 202.529 147.874L221.253 145.838C212.652 142.103 204.643 137.677 199.501 129.897L219.782 124.59C211.504 123.136 204.277 120.967 199.369 117.222L216.58 109.294C208.02 107.644 199.855 105.476 195.157 98.7646L208.397 96.1077C201.49 91.9598 194.831 87.0622 189.489 78.3735C186.593 84.3421 177.866 93.6358 172.141 97.8492Z" fill="#506604"/>
<path fill-rule="evenodd" clip-rule="evenodd" d="M206.076 73.3921L220.702 76.0112C215.73 84.3599 206.818 87.3597 197.458 89.7487L216.603 98.5753C211.316 103.338 203.436 106.295 194.38 108.433L216.82 113.945C211.392 123.61 202.716 129.338 193.371 134.256L214.006 135.877C210.664 147.138 204.178 157.079 196.761 166.629L224.881 160.866L252.131 166.93C245.04 157.263 238.891 147.222 235.93 135.909L256.615 134.624C247.439 129.557 238.96 123.69 233.861 113.941L256.482 108.791C247.501 106.508 239.723 103.424 234.599 98.5779L254.035 90.0604C244.758 87.5212 235.951 84.3799 231.263 75.9533L245.975 73.5702C238.686 68.1096 231.722 61.7566 226.466 50.894C222.872 57.9416 212.651 68.6493 206.076 73.3921Z" fill="#547F1D"/>
<path fill-rule="evenodd" clip-rule="evenodd" d="M216.077 125.084L226.643 127.783C222.558 133.629 215.874 135.349 208.894 136.597L222.437 144.082C218.312 147.286 212.385 149.03 205.642 150.111L221.775 155.345C217.285 162.13 210.627 165.86 203.524 168.96L218.543 171.25C215.494 179.315 210.215 186.246 204.275 192.84L225.168 190.125L244.792 196.02C240.118 188.564 236.153 180.885 234.59 172.445L249.801 172.61C243.355 168.411 237.462 163.662 234.25 156.253L251.084 153.692C244.632 151.541 239.103 148.868 235.611 145.046L250.294 139.849C243.639 137.495 237.359 134.724 234.378 128.305L245.275 127.347C240.231 122.96 235.473 117.937 232.206 109.704C229.198 114.671 221.143 121.963 216.077 125.084Z" fill="#75871F"/>
<path d="M222.98 209.397C224.733 209.601 226.307 209.258 226.496 208.631C226.685 208.004 225.417 207.331 223.664 207.127C221.911 206.923 220.337 207.266 220.148 207.893C219.959 208.519 221.227 209.193 222.98 209.397Z" fill="#61650A"/>
<path fill-rule="evenodd" clip-rule="evenodd" d="M227.062 188.522L225.438 207.921C225.169 209.443 221.381 209.082 221.549 207.652L223.903 187.658L227.062 188.522Z" fill="#E3E79A"/>
<path fill-rule="evenodd" clip-rule="evenodd" d="M260.837 156.5L258.405 175.814C258.073 177.324 254.303 176.805 254.531 175.384L257.717 155.505L260.837 156.5Z" fill="#E3E79A"/>
<path fill-rule="evenodd" clip-rule="evenodd" d="M252.508 92.6588L262.953 95.7962C258.627 101.467 251.877 102.906 244.851 103.862L258.07 111.906C253.815 114.935 247.821 116.43 241.038 117.228L256.938 123.131C252.169 129.723 245.362 133.172 238.135 135.973L253.046 138.887C249.663 146.818 244.099 153.523 237.89 159.864L258.878 158.022L278.239 164.731C273.88 157.087 270.239 149.249 269.03 140.751L284.22 141.55C277.955 137.086 272.265 132.096 269.365 124.558L286.292 122.702C279.935 120.283 274.522 117.382 271.192 113.418L286.079 108.839C279.528 106.208 273.37 103.179 270.659 96.6405L281.587 96.1377C276.73 91.5441 272.185 86.327 269.264 77.9651C266.052 82.8024 257.7 89.7523 252.508 92.6588Z" fill="#A4A83A"/>
<path fill-rule="evenodd" clip-rule="evenodd" d="M264.709 198.408C268.271 197.286 273.968 196.111 279.796 197.634C285.624 199.157 291.398 204.118 297.591 208.852C303.784 213.587 311.156 220.604 316.547 226.261C321.938 231.917 327.546 237.124 330.087 242.508C332.627 247.892 334.897 251.657 332.794 256.821C330.692 261.986 328.825 262.902 323.704 265.139C318.582 267.376 308.23 276.164 300.88 269.781C299.573 268.646 291.614 256.937 286.76 251.406C281.906 245.875 274.767 239.413 273.994 237.479C273.22 235.545 273.442 226.499 270.899 222.779C268.356 219.058 263.324 218.99 260.841 216.203C258.358 213.415 256.199 209.513 256.199 206.918C256.199 204.323 257.119 203.816 258.52 202.276C259.92 200.736 261.147 199.529 264.709 198.408Z" fill="url(#paint3_radial_71_1012)"/>
<path fill-rule="evenodd" clip-rule="evenodd" d="M282.311 151.889L276.117 149.736L308.036 134.965L307.744 162.914L305.038 164.849L299.854 161.32L292.325 162.267L294.513 148.431L282.311 151.889Z" fill="#E3FBFF"/>
<path fill-rule="evenodd" clip-rule="evenodd" d="M332.35 177.273L325.217 173.037L366.856 159.683L361.222 197.634L357.564 199.694L351.921 193.801L342.578 193.501L347.853 175.144L332.35 177.273Z" fill="#E3FBFF"/>
<path fill-rule="evenodd" clip-rule="evenodd" d="M368.013 263.473L368.665 249.084L382.238 259.917C382.238 259.917 382.785 271.68 383.058 272.774C383.332 273.868 380.596 289.186 380.596 289.186L369.381 305.052L374.031 294.11L376.209 288.622L374.284 273.09L364.321 267.029L368.013 263.473Z" fill="#E3FBFF"/>
<path fill-rule="evenodd" clip-rule="evenodd" d="M343.989 320.808L334.511 318.756C333.776 318.53 334.179 316.803 334.874 316.977L344.602 319.406L343.989 320.808Z" fill="#E3E79A"/>
<path fill-rule="evenodd" clip-rule="evenodd" d="M375.948 319.983L373.989 324.687C371.347 322.407 370.894 319.201 370.692 315.89L366.195 321.65C364.858 319.528 364.349 316.671 364.216 313.481L360.676 320.588C357.593 318.057 356.147 314.729 355.039 311.237L353.018 318.028C349.218 316.077 346.111 313.172 343.209 309.983L343.31 319.825L339.237 328.503C343.193 326.842 347.219 325.523 351.476 325.367L350.493 332.388C352.948 329.69 355.641 327.283 359.488 326.295L359.753 334.25C361.198 331.411 362.845 329.034 364.938 327.676L366.632 334.813C368.189 331.894 369.928 329.176 373.273 328.229L373.1 333.331C375.564 331.293 378.325 329.43 382.582 328.471C380.309 326.748 377.188 322.535 375.948 319.983Z" fill="#75871F"/>
<path fill-rule="evenodd" clip-rule="evenodd" d="M408.71 359.903L402.456 367.445C398.885 361.762 399.862 355.614 401.358 349.415L389.843 357.465C388.583 352.811 389.259 347.272 390.813 341.333L380.297 352.4C376.06 346.01 375.279 339.077 375.211 332.033L367.667 343.375C361.783 337.647 357.711 330.553 354.174 323.056L348.809 341.203L336.428 354.855C344.638 354.034 352.779 353.881 360.694 355.995L354.926 368.346C360.96 364.77 367.267 361.866 374.896 362.22L370.896 376.991C375.153 372.588 379.521 369.148 384.134 367.832L383.222 381.906C387.73 377.418 392.46 373.405 399.142 373.549L395.946 382.83C401.625 380.474 407.751 378.607 416.116 379.246C412.91 374.796 409.549 365.292 408.71 359.903Z" fill="#91A846"/>
<path fill-rule="evenodd" clip-rule="evenodd" d="M349.502 343.393L333.24 334.275C332.016 333.445 333.73 330.498 334.911 331.209L351.421 341.16L349.502 343.393Z" fill="#E3E79A"/>
<path d="M309.158 332.514C310.197 330.831 310.545 329.125 309.934 328.705C309.323 328.284 307.985 329.308 306.945 330.991C305.906 332.674 305.558 334.38 306.169 334.8C306.78 335.221 308.118 334.197 309.158 332.514Z" fill="#61650A"/>
<path fill-rule="evenodd" clip-rule="evenodd" d="M323.652 343.198L307.459 334.033C306.252 333.18 308.298 329.726 309.469 330.447L325.85 340.538L323.652 343.198Z" fill="#E3E79A"/>
<path fill-rule="evenodd" clip-rule="evenodd" d="M384.055 357.697L376.871 366.667C373.634 360.492 375.186 353.47 377.285 346.353L364.563 356.27C363.65 351.095 364.836 344.783 366.972 337.956L355.033 351.215C351.16 344.286 350.945 336.5 351.484 328.538L342.624 341.897C336.975 335.833 333.336 328.098 330.292 319.868L323.119 340.77L309.007 357.083C317.652 355.575 326.167 354.829 334.249 356.662L327.157 371.038C333.768 366.568 340.605 362.839 348.542 362.701L343.087 379.69C347.913 374.409 352.772 370.211 357.704 368.397L355.533 384.379C360.629 378.985 365.916 374.113 372.882 373.805L368.741 384.527C374.875 381.462 381.434 378.918 390.114 379.052C387.151 374.245 384.465 363.733 384.055 357.697Z" fill="#335F04"/>
<path d="M147.818 473.967C156.38 477.575 165.465 475.292 168.11 468.868C170.756 462.445 165.96 454.313 157.398 450.705C148.837 447.098 139.752 449.381 137.107 455.805C134.461 462.228 139.257 470.36 147.818 473.967Z" fill="#91A846"/>
<path fill-rule="evenodd" clip-rule="evenodd" d="M209.479 444.55L209.741 472.677C209.538 474.901 203.469 474.838 203.527 472.76L204.335 443.687C204.272 442.218 209.607 441.647 209.479 444.55Z" fill="#E3E79A"/>
<path fill-rule="evenodd" clip-rule="evenodd" d="M84.1489 432.587C91.2743 425.757 99.2248 420.027 108.744 416.39L109.644 419.689C100.016 423.187 91.9113 429.349 83.849 435.586L84.1489 432.587Z" fill="#E3E79A"/>
<path fill-rule="evenodd" clip-rule="evenodd" d="M89.9979 409.866C86.927 414.149 82.1682 417.708 81.5994 423.063C77.5012 420.962 75.5231 415.15 72.901 410.466C73.3345 416.468 71.8281 421.113 75.9004 429.662C70.6103 429.881 66.6782 425.347 62.103 423.063C66.4057 427.911 69.0085 433.397 76.2004 437.161L66.6022 444.36C71.9499 443.995 76.9401 443.004 80.6996 439.86L84.8988 452.158C84.4193 448.359 84.7833 444.56 86.6984 440.76C92.5051 444.537 97.7523 442.719 103.195 442.86C96.7799 440.769 90.5213 438.128 84.8988 433.262L85.5276 431.249C85.8363 425.16 87.7211 416.077 89.9979 409.866Z" fill="url(#paint4_radial_71_1012)"/>
<path fill-rule="evenodd" clip-rule="evenodd" d="M98.3081 454.015C102.308 442.667 107.81 432.063 116.169 422.872L118.962 425.968C110.408 435.065 104.975 446.226 99.6303 457.444L98.3081 454.015Z" fill="#E3E79A"/>
<path d="M156.562 510.861C161.208 512.095 168.289 500.626 172.378 485.244C176.467 469.861 176.016 456.39 171.37 455.155C166.724 453.92 159.643 465.389 155.554 480.772C151.465 496.154 151.917 509.626 156.562 510.861Z" fill="#9FA63E"/>
<path fill-rule="evenodd" clip-rule="evenodd" d="M221.359 438.52L223.097 466.447C223.103 468.643 219.55 468.239 219.467 466.179L218.294 438.341C218.516 436.607 221.557 436.967 221.359 438.52Z" fill="#E3E79A"/>
<path fill-rule="evenodd" clip-rule="evenodd" d="M99.3154 451.009C95.1541 445.681 93.9732 437.349 93.0108 428.795C92.0233 435.144 88.8014 441.632 91.1258 447.772C85.5114 447.738 80.1647 442.501 74.7367 438.845C78.5075 445.138 79.421 451.02 88.5514 458.085C82.9152 461.231 76.1444 458.458 69.9109 458.488C77.2573 461.398 83.1044 465.936 92.9992 466.08L86.5116 479.188C92.1302 475.852 97.016 472.032 99.3787 466.544L110.707 477.618C108.097 473.747 106.405 469.413 106.401 464.226C114.795 465.144 119.506 460.283 125.506 457.444C117.376 458.694 108.964 458.361 100.171 456.156L99.3154 451.009Z" fill="url(#paint5_radial_71_1012)"/>
<path d="M221.803 508.071C227.789 507.153 232.24 493.246 231.744 477.01C231.249 460.774 225.994 448.356 220.008 449.274C214.022 450.193 209.571 464.099 210.067 480.335C210.563 496.571 215.817 508.989 221.803 508.071Z" fill="#91A846"/>
<path d="M209.166 489.923C218.414 489.032 225.325 482.709 224.603 475.799C223.881 468.89 215.798 464.011 206.551 464.902C197.303 465.792 190.392 472.116 191.114 479.025C191.837 485.934 199.919 490.813 209.166 489.923Z" fill="#335F04"/>
<path d="M240.664 474.928C249.671 472.653 255.55 465.36 253.794 458.639C252.038 451.917 243.312 448.313 234.305 450.588C225.297 452.863 219.419 460.156 221.175 466.878C222.931 473.599 231.656 477.204 240.664 474.928Z" fill="#75871F"/>
<path fill-rule="evenodd" clip-rule="evenodd" d="M166.36 232.204C166.322 232.981 166.15 233.817 166.133 234.519C166.115 235.222 166.226 235.287 165.186 236.486C164.145 237.685 170.694 237.677 169.674 236.617C168.653 235.557 168.783 235.466 168.731 234.455C168.679 233.445 168.799 232.665 168.782 231.731L166.36 232.204Z" fill="#E5E89C"/>
<path fill-rule="evenodd" clip-rule="evenodd" d="M161.472 233.702C159.84 228.514 172.697 224.109 173.243 232.563C173.354 234.275 171.909 233.315 171.165 233.26C168.288 233.044 166.006 232.564 162.587 233.711C161.819 233.969 161.501 233.797 161.472 233.702Z" fill="#8B7324"/>
<path fill-rule="evenodd" clip-rule="evenodd" d="M173.929 234.842C173.841 235.456 173.641 236.106 173.574 236.662C173.507 237.218 173.591 237.278 172.674 238.152C171.758 239.025 176.957 239.512 176.227 238.594C175.497 237.675 175.607 237.613 175.642 236.807C175.676 236.001 175.83 235.391 175.888 234.648L173.929 234.842Z" fill="#E5E89C"/>
<path fill-rule="evenodd" clip-rule="evenodd" d="M169.936 235.662C169.032 231.421 179.569 228.894 179.366 235.645C179.325 237.012 178.25 236.142 177.663 236.041C175.396 235.654 173.621 235.1 170.821 235.753C170.192 235.9 169.953 235.74 169.936 235.662Z" fill="#8B7324"/>
<path fill-rule="evenodd" clip-rule="evenodd" d="M162.927 236.947C163.079 237.464 163.155 238.049 163.303 238.513C163.452 238.976 163.54 238.994 163.12 240.011C162.7 241.028 167.066 239.558 166.144 239.093C165.221 238.627 165.287 238.539 165.022 237.889C164.756 237.24 164.659 236.703 164.435 236.095L162.927 236.947Z" fill="#E5E89C"/>
<path fill-rule="evenodd" clip-rule="evenodd" d="M160.008 239.021C157.736 235.991 165.308 230.233 167.6 235.642C168.065 236.737 166.882 236.433 166.373 236.563C164.404 237.065 162.773 237.262 160.754 238.777C160.3 239.118 160.049 239.076 160.008 239.021Z" fill="#8B7324"/>
<path fill-rule="evenodd" clip-rule="evenodd" d="M85.8348 241.038C86.1061 241.426 86.3343 241.892 86.5876 242.237C86.8407 242.582 86.9183 242.572 86.8638 243.537C86.8094 244.502 89.9604 242.059 89.074 241.928C88.1877 241.798 88.2167 241.706 87.815 241.239C87.4135 240.771 87.1807 240.351 86.8251 239.907L85.8348 241.038Z" fill="#E5E89C"/>
<path fill-rule="evenodd" clip-rule="evenodd" d="M84.0388 243.579C81.321 241.688 85.8721 234.779 89.2835 238.647C89.9745 239.43 88.9214 239.506 88.5419 239.756C87.0763 240.724 85.7983 241.343 84.5792 243.168C84.3053 243.579 84.0882 243.614 84.0388 243.579Z" fill="#8B7324"/>
<path fill-rule="evenodd" clip-rule="evenodd" d="M90.4624 239.489C90.6484 239.817 90.7944 240.205 90.9695 240.497C91.1444 240.79 91.2067 240.788 91.0908 241.55C90.9748 242.312 93.6602 240.61 92.9665 240.44C92.2727 240.27 92.3027 240.199 92.0191 239.798C91.7356 239.396 91.5825 239.045 91.3337 238.666L90.4624 239.489Z" fill="#E5E89C"/>
<path fill-rule="evenodd" clip-rule="evenodd" d="M88.8451 241.371C86.8304 239.665 90.9637 234.524 93.38 237.851C93.8694 238.525 93.0278 238.506 92.7077 238.676C91.4714 239.333 90.4103 239.728 89.305 241.085C89.0567 241.39 88.8818 241.402 88.8451 241.371Z" fill="#8B7324"/>
<path fill-rule="evenodd" clip-rule="evenodd" d="M85.9478 244.6C86.2135 244.792 86.4679 245.046 86.712 245.214C86.9561 245.382 87.0055 245.357 87.1819 246.004C87.3583 246.65 88.9136 244.316 88.296 244.435C87.6784 244.555 87.6774 244.488 87.3076 244.274C86.938 244.06 86.6907 243.837 86.3568 243.628L85.9478 244.6Z" fill="#E5E89C"/>
<path fill-rule="evenodd" clip-rule="evenodd" d="M85.3143 246.686C83.0921 246.073 84.594 240.48 87.7124 242.231C88.3439 242.586 87.6609 242.879 87.4641 243.132C86.7034 244.107 85.9907 244.809 85.5828 246.291C85.4912 246.624 85.3549 246.697 85.3143 246.686Z" fill="#8B7324"/>
<path fill-rule="evenodd" clip-rule="evenodd" d="M247.359 180.582C247.221 180.873 247.022 181.165 246.904 181.431C246.785 181.696 246.817 181.739 246.229 182.032C245.64 182.325 248.145 183.364 247.924 182.796C247.702 182.228 247.767 182.214 247.907 181.82C248.048 181.425 248.218 181.146 248.36 180.786L247.359 180.582Z" fill="#E5E89C"/>
<path fill-rule="evenodd" clip-rule="evenodd" d="M245.252 180.376C245.454 178.133 251.071 178.495 249.934 181.814C249.704 182.487 249.304 181.89 249.028 181.75C247.962 181.21 247.166 180.663 245.677 180.557C245.342 180.534 245.248 180.417 245.252 180.376Z" fill="#8B7324"/>
<path fill-rule="evenodd" clip-rule="evenodd" d="M249.833 182.795C249.702 183.016 249.522 183.232 249.408 183.435C249.294 183.637 249.316 183.673 248.827 183.861C248.337 184.049 250.248 185.063 250.115 184.595C249.982 184.128 250.034 184.122 250.175 183.819C250.317 183.516 250.473 183.308 250.613 183.033L249.833 182.795Z" fill="#E5E89C"/>
<path fill-rule="evenodd" clip-rule="evenodd" d="M248.176 182.473C248.506 180.708 252.937 181.419 251.784 183.968C251.551 184.484 251.279 183.98 251.07 183.848C250.265 183.339 249.674 182.845 248.5 182.649C248.236 182.605 248.17 182.505 248.176 182.473Z" fill="#8B7324"/>
<path fill-rule="evenodd" clip-rule="evenodd" d="M245.291 181.849C245.267 182.07 245.203 182.306 245.186 182.507C245.169 182.708 245.2 182.729 244.877 183.051C244.555 183.373 246.458 183.506 246.18 183.181C245.901 182.856 245.94 182.833 245.942 182.542C245.943 182.252 245.992 182.031 246.003 181.763L245.291 181.849Z" fill="#E5E89C"/>
<path fill-rule="evenodd" clip-rule="evenodd" d="M243.845 182.177C243.459 180.657 247.27 179.66 247.286 182.093C247.289 182.586 246.885 182.281 246.67 182.25C245.837 182.129 245.182 181.944 244.169 182.202C243.942 182.26 243.852 182.204 243.845 182.177Z" fill="#8B7324"/>
<path fill-rule="evenodd" clip-rule="evenodd" d="M178.746 253.213C177.832 248.874 172.843 246.547 168.57 246.656C164.919 246.749 161.706 248.817 159.167 251.362C155.686 254.85 150.928 256.635 146.586 258.974C144.81 259.931 146.094 263.169 148.194 263.604C151.863 264.362 155.452 263.34 159.092 263.205C165.259 262.977 170.794 259.731 176.023 256.705C177.711 255.728 179.149 255.124 178.746 253.213Z" fill="url(#paint6_linear_71_1012)"/>
<path fill-rule="evenodd" clip-rule="evenodd" d="M127.457 285.361C123.133 279.397 125.83 270.66 130.73 265.518C134.915 261.127 141.042 259.477 147.008 259.187C155.185 258.79 162.687 254.92 170.408 252.182C173.567 251.062 176.123 256.254 174.316 259.325C171.16 264.688 165.899 267.967 161.675 272.299C154.519 279.639 144.35 282.835 134.793 285.9C131.708 286.889 129.362 287.987 127.457 285.361Z" fill="url(#paint7_linear_71_1012)"/>
<g filter="url(#filter3_f_71_1012)">
<path fill-rule="evenodd" clip-rule="evenodd" d="M306.389 410.763C300.297 414.359 294.83 418.936 288.584 422.281C287.268 422.788 285.953 420.868 286.902 419.824C289.308 416.799 293.015 415.348 296.02 413.052C298.377 411.539 300.819 410.075 303.526 409.286C304.554 409.149 305.814 409.191 306.497 410.092C306.637 410.304 306.557 410.593 306.389 410.763Z" fill="black"/>
</g>
<path fill-rule="evenodd" clip-rule="evenodd" d="M290.698 430.529C289.231 431.885 287.89 433.689 285.791 434.034C283.008 435.593 279.451 436.483 276.446 435.013C274.847 433.432 275.911 430.772 277.53 429.64C280.152 427.251 283.563 425.878 287.05 425.418C288.972 425.009 290.562 422.449 292.602 423.271C294.39 424.39 294.19 427.163 292.691 428.448C292.068 429.18 291.337 429.811 290.698 430.529Z" fill="url(#paint8_linear_71_1012)"/>
<path fill-rule="evenodd" clip-rule="evenodd" d="M303.56 420.712C301.583 423.116 299.089 425.006 296.754 427.039C293.689 427.99 289.55 427.032 288.333 423.757C287.429 421.351 288.951 418.596 291.219 417.61C294.826 415.039 298.722 412.903 302.312 410.306C304.878 409.215 307.822 411.691 307.669 414.359C307.747 416.293 306.563 418.263 304.734 418.964C304.15 419.366 303.552 419.949 303.56 420.712Z" fill="url(#paint9_linear_71_1012)"/>
<path fill-rule="evenodd" clip-rule="evenodd" d="M287.511 425.234C285.945 426.664 284.178 428.101 282.01 428.409C279.816 427.603 279.333 424.399 280.885 422.775C282.55 419.94 285.418 418.042 288.411 416.833C289.624 414.65 293.232 417.723 291 419.167C289.462 420.961 288.999 423.406 287.511 425.234Z" fill="url(#paint10_linear_71_1012)"/>
<path fill-rule="evenodd" clip-rule="evenodd" d="M304.209 362.239C303.73 361.857 303.276 361.363 302.835 361.029C302.395 360.694 302.302 360.735 302.015 359.519C301.728 358.303 298.72 362.489 299.866 362.325C301.013 362.161 301.011 362.286 301.68 362.717C302.35 363.149 302.793 363.585 303.397 364.004L304.209 362.239Z" fill="#E5E89C"/>
<path fill-rule="evenodd" clip-rule="evenodd" d="M305.501 358.428C309.565 359.773 306.463 370.01 300.813 366.47C299.669 365.753 300.946 365.272 301.324 364.822C302.785 363.084 304.142 361.847 304.982 359.136C305.171 358.527 305.427 358.404 305.501 358.428Z" fill="#8B7324"/>
<path fill-rule="evenodd" clip-rule="evenodd" d="M299.042 365.859C298.691 365.52 298.368 365.094 298.043 364.795C297.719 364.497 297.642 364.522 297.506 363.535C297.37 362.548 294.666 365.644 295.589 365.6C296.511 365.557 296.5 365.656 296.999 366.048C297.498 366.441 297.817 366.821 298.265 367.199L299.042 365.859Z" fill="#E5E89C"/>
<path fill-rule="evenodd" clip-rule="evenodd" d="M300.355 362.932C303.479 364.306 300.245 372.198 296.028 368.962C295.173 368.306 296.224 368.021 296.558 367.692C297.849 366.423 299.019 365.543 299.89 363.455C300.086 362.986 300.298 362.907 300.355 362.932Z" fill="#8B7324"/>
<path fill-rule="evenodd" clip-rule="evenodd" d="M302.759 357.865C302.359 357.724 301.951 357.503 301.587 357.385C301.222 357.267 301.17 357.315 300.714 356.578C300.258 355.842 299.188 359.307 299.909 358.932C300.631 358.557 300.657 358.64 301.194 358.769C301.731 358.898 302.119 359.083 302.61 359.22L302.759 357.865Z" fill="#E5E89C"/>
<path fill-rule="evenodd" clip-rule="evenodd" d="M302.778 355.047C305.758 354.99 305.952 362.474 301.443 361.45C300.53 361.242 301.268 360.627 301.42 360.242C302.004 358.754 302.63 357.622 302.591 355.635C302.583 355.189 302.724 355.048 302.778 355.047Z" fill="#8B7324"/>
<path fill-rule="evenodd" clip-rule="evenodd" d="M7.84279 64.1716C5.48118 61.851 -0.163861 54.9185 7.06909 48.3109C6.68287 38.7665 30.4147 34.4942 35.3089 41.7345C38.6564 34.382 59.5361 35.7963 59.2935 42.1213C64.3536 36.419 75.4568 36.3666 78.6358 39.0265C81.6969 34.3698 91.9442 35.2842 94.4966 36.7054C92.647 43.2558 85.8421 44.1077 81.7306 44.8292C79.1174 47.6544 76.0964 49.4194 71.6726 47.5372C69.7946 50.6662 67.2942 51.5131 64.3225 50.6319C64.3268 57.2266 52.21 63.8754 46.9144 60.3031C45.7366 71.3835 30.7439 78.8525 24.0904 74.6165C23.664 79.277 21.2406 78.3457 19.0613 78.0981C12.9857 90.1706 5.60614 87.3397 0.879521 85.8351C-9.51448 83.3023 -6.68524 74.1439 -4.92318 73.8428C-5.27396 65.3978 2.22604 63.0337 7.84279 64.1716Z" fill="#EBFDFF" stroke="#008080" stroke-width="0.306367"/>
<path fill-rule="evenodd" clip-rule="evenodd" d="M76.6701 61.4811C75.3018 60.1424 72.1618 56.1762 77.6459 52.6911C78.2865 47.4035 94.6384 45.5961 97.2447 49.7149C100.188 45.7269 114.087 46.9978 113.327 50.4902C117.265 47.4549 124.732 47.6858 126.618 49.2312C129.114 46.7275 135.915 47.473 137.496 48.3188C135.635 51.8982 130.982 52.2101 128.151 52.5129C126.128 54.0142 123.931 54.9197 121.136 53.7751C119.578 55.4617 117.818 55.8716 115.904 55.3147C115.285 58.962 106.515 62.3556 103.293 60.256C101.456 66.3565 90.6762 70.1364 86.6042 67.6379C85.8782 70.2055 84.3373 69.6338 82.8961 69.4458C77.6744 75.9804 72.982 74.242 69.9474 73.2992C63.2009 71.6552 65.9661 66.6563 67.1786 66.531C67.7393 61.8522 73.0026 60.7203 76.6701 61.4811Z" fill="#EBFDFF" stroke="#008080" stroke-width="0.306367"/>
<path fill-rule="evenodd" clip-rule="evenodd" d="M150.344 10.1006C151.707 11.2379 154.833 14.6198 149.341 17.7013C148.684 22.2742 130.064 22.8249 127.472 19.3043C124.518 22.786 110.63 21.8742 111.401 18.8493C107.455 21.5219 99.9924 21.4221 98.1126 20.1132C95.6096 22.3077 86.1891 23.7071 87.2371 21.0458C89.1083 17.9312 93.7605 17.5999 96.5912 17.3008C98.6175 15.9779 100.816 15.167 103.606 16.1177C105.168 14.6411 106.929 14.2638 108.84 14.719C109.47 11.5623 118.247 8.51602 121.461 10.2855C123.315 4.99495 134.102 1.5884 138.164 3.69085C138.898 1.46482 142.706 3.16518 144.146 3.30769C149.386 -2.40268 154.071 1.22798 157.101 2.00128C163.839 3.33055 161.06 7.68251 159.847 7.80686C159.272 11.8532 154.007 10.7084 150.344 10.1006Z" fill="#EBFDFF" stroke="#008080" stroke-width="0.306367"/>
<path fill-rule="evenodd" clip-rule="evenodd" d="M271.809 30.9204C272.156 27.6277 274.07 18.8949 283.743 20.445C290.974 14.2034 309.086 30.1222 306.464 38.4588C314.303 36.5039 326.189 53.7286 321.086 57.4746C328.699 57.8873 335.649 66.5462 335.545 70.69C341.095 70.1884 346.756 78.779 347.232 81.6614C340.953 84.2897 336.052 79.493 332.929 76.7234C329.091 76.4359 325.83 75.1693 324.55 70.5351C320.932 71.0121 318.713 69.5818 317.554 66.7073C312.394 70.8146 299.65 65.4667 299.151 59.0983C289.744 65.0714 274.568 57.9829 273.743 50.1386C269.83 52.705 269.051 50.2283 267.888 48.3684C254.657 51.1248 252.281 43.5865 250.518 38.9502C246.033 29.2377 254.962 25.7534 256.295 26.9454C262.687 21.4157 269.205 25.8156 271.809 30.9204Z" fill="#EBFDFF" stroke="#008080" stroke-width="0.306367"/>
<path fill-rule="evenodd" clip-rule="evenodd" d="M312.102 82.3504C312.299 80.4462 313.45 75.5202 319.591 77.6444C324.128 74.8555 335.718 86.5311 334.116 91.1343C339.069 90.9565 346.723 102.627 343.517 104.206C348.344 105.4 352.809 111.389 352.773 113.827C356.286 114.223 359.934 120.01 360.256 121.774C356.296 122.545 353.157 119.096 351.158 117.068C348.724 116.419 346.648 115.263 345.805 112.363C343.515 112.193 342.099 111.07 341.344 109.226C338.104 111.011 329.99 106.257 329.628 102.428C323.71 104.787 314.043 98.7003 313.465 93.958C311.003 94.9874 310.492 93.4255 309.742 92.1803C301.377 92.159 299.818 87.4041 298.668 84.442C295.757 78.1378 301.39 77.1917 302.243 78.0629C306.255 75.5903 310.416 79.0061 312.102 82.3504Z" fill="#EBFDFF" stroke="#008080" stroke-width="0.306367"/>
<path fill-rule="evenodd" clip-rule="evenodd" d="M386.756 97.1943C386.362 98.9255 384.768 103.246 379.529 99.7527C375.156 101.244 366.209 84.9062 368.169 80.998C363.725 79.9473 358.23 67.1605 361.275 66.4729C357.101 64.1712 353.801 57.4776 354.113 55.2084C351.022 53.9751 345.496 46.2179 348.343 45.9429C351.968 46.1954 354.376 50.1896 355.928 52.5756C358.027 53.7801 359.748 55.3705 360.168 58.2883C362.193 59.009 363.329 60.4063 363.791 62.3158C366.89 61.4435 373.59 67.8791 373.473 71.5459C379.029 70.7957 386.963 78.8585 386.935 83.4323C389.251 83.075 389.466 87.2401 389.993 88.5876C397.46 90.6622 396.354 96.4857 397.041 99.5365C398.917 106.143 393.777 105.643 393.116 104.62C389.249 105.945 387.878 100.734 386.756 97.1943Z" fill="#EBFDFF" stroke="#008080" stroke-width="0.306367"/>
<path fill-rule="evenodd" clip-rule="evenodd" d="M406.723 241.029C408.41 240.424 413.115 239.306 414.632 244.385C419.372 246.444 415.867 259.01 411.188 259.69C413.982 263.051 408.378 272.889 405.354 271.282C406.941 275.09 404.353 280.511 402.309 281.433C403.857 284.02 400.999 288.797 399.706 289.706C396.951 287.263 398.137 283.748 398.754 281.575C397.993 279.637 397.844 277.75 399.802 276.038C398.72 274.386 398.896 272.969 400.025 271.729C396.811 270.179 396.424 262.711 399.411 260.972C394.291 257.79 394.181 248.729 397.811 246.485C395.641 245.18 396.665 244.219 397.299 243.215C392.848 237.414 395.964 234.486 397.809 232.537C401.49 228.07 405.285 231.604 405.017 232.534C409.214 234.351 408.6 238.56 406.723 241.029Z" fill="#EBFDFF" stroke="#008080" stroke-width="0.250523"/>
<path fill-rule="evenodd" clip-rule="evenodd" d="M418.439 286.883C419.412 286.68 422.028 286.474 421.944 289.844C424.037 291.649 420.089 299.216 417.561 299.148C418.429 301.569 413.864 307.19 412.579 305.853C412.748 308.427 410.49 311.577 409.279 311.943C409.636 313.742 407.349 316.456 406.528 316.893C405.524 315.057 406.734 312.962 407.422 311.655C407.36 310.349 407.605 309.141 408.906 308.267C408.63 307.109 408.962 306.232 409.755 305.569C408.363 304.248 409.436 299.488 411.272 298.707C409.174 296.152 410.662 290.415 412.915 289.383C412.019 288.328 412.711 287.83 413.208 287.263C411.902 283.125 414.008 281.605 415.291 280.571C417.95 278.139 419.304 280.775 419.007 281.334C420.861 282.928 419.827 285.523 418.439 286.883Z" fill="#EBFDFF" stroke="#008080" stroke-width="0.250523"/>
<path fill-rule="evenodd" clip-rule="evenodd" d="M326.161 448.388C327.899 447.325 329.354 446.822 331.906 444.285C333.002 443.195 333.789 441.486 334.641 439.908C335.086 441.418 335.471 442.958 337.924 443.464L334.094 445.106C331.83 446.076 330.285 448.226 328.623 450.029C334.01 453.453 339.069 458.839 344.215 463.706C346.864 466.212 344.699 467.71 342.027 465.895L327.529 456.047C319.661 461.163 319.954 453.758 321.785 452.218C318.531 447.811 313.855 444.251 309.749 439.908C308.999 439.116 306.905 436.272 311.937 438.267C317.163 440.914 321.966 444.195 326.161 448.388Z" fill="#E3E79A"/>
<path fill-rule="evenodd" clip-rule="evenodd" d="M369.463 450.219C370.926 448.802 372.235 447.993 374.17 444.958C375.001 443.654 375.394 441.814 375.881 440.089C376.645 441.465 377.358 442.883 379.862 442.84L376.485 445.28C374.488 446.722 373.451 449.158 372.225 451.282C378.23 453.443 384.346 457.591 390.433 461.213C393.566 463.078 391.782 465.014 388.776 463.828L372.474 457.393C365.918 464.108 364.582 456.817 366.031 454.914C361.892 451.327 356.55 448.876 351.592 445.538C350.687 444.929 348.022 442.613 353.368 443.458C359.047 444.897 364.452 447.046 369.463 450.219Z" fill="#E3E79A"/>
<path fill-rule="evenodd" clip-rule="evenodd" d="M381.069 412.695C382.531 411.278 383.841 410.468 385.775 407.434C386.606 406.13 387 404.29 387.486 402.564C388.251 403.94 388.964 405.359 391.468 405.316L388.09 407.755C386.093 409.198 385.057 411.634 383.83 413.757C389.835 415.919 395.951 420.067 402.038 423.689C405.171 425.554 403.387 427.49 400.382 426.304L384.08 419.869C377.523 426.583 376.187 419.293 377.636 417.39C373.497 413.803 368.155 411.352 363.198 408.014C362.293 407.405 359.627 405.088 364.974 405.934C370.652 407.373 376.057 409.522 381.069 412.695Z" fill="#E3E79A"/>
<path fill-rule="evenodd" clip-rule="evenodd" d="M319.258 481.691C321.23 481.182 322.769 481.126 325.95 479.444C327.317 478.721 328.568 477.316 329.844 476.057C329.829 477.631 329.748 479.216 331.946 480.416L327.804 480.868C325.355 481.135 323.249 482.74 321.134 483.98C325.286 488.827 328.553 495.455 332.054 501.613C333.856 504.783 331.348 505.584 329.322 503.067L318.33 489.416C309.312 492.013 311.754 485.015 313.954 484.076C312.129 478.912 308.696 474.142 306.036 468.79C305.551 467.812 304.379 464.482 308.609 467.859C312.834 471.916 316.47 476.456 319.258 481.691Z" fill="#E3E79A"/>
<path fill-rule="evenodd" clip-rule="evenodd" d="M272.543 488.596C273.989 488.764 275.029 489.123 277.583 488.821C278.68 488.692 279.876 488.077 281.051 487.566C280.635 488.611 280.173 489.647 281.329 491.013L278.451 490.248C276.75 489.795 274.934 490.323 273.204 490.604C274.724 494.904 275.194 500.164 275.942 505.17C276.327 507.747 274.449 507.635 273.746 505.436L269.935 493.506C263.255 492.914 266.685 488.878 268.394 488.82C268.507 484.907 267.447 480.844 267.053 476.591C266.981 475.815 267.057 473.293 269.007 476.633C270.778 480.426 272.033 484.388 272.543 488.596Z" fill="#E3E79A"/>
</g>
<defs>
<filter id="filter0_f_71_1012" x="276.475" y="413.412" width="15.8668" height="15.2723" filterUnits="userSpaceOnUse" color-interpolation-filters="sRGB">
<feFlood flood-opacity="0" result="BackgroundImageFix"/>
<feBlend mode="normal" in="SourceGraphic" in2="BackgroundImageFix" result="shape"/>
<feGaussianBlur stdDeviation="0.885283" result="effect1_foregroundBlur_71_1012"/>
</filter>
<filter id="filter1_f_71_1012" x="271.898" y="419.869" width="24.5714" height="15.6929" filterUnits="userSpaceOnUse" color-interpolation-filters="sRGB">
<feFlood flood-opacity="0" result="BackgroundImageFix"/>
<feBlend mode="normal" in="SourceGraphic" in2="BackgroundImageFix" result="shape"/>
<feGaussianBlur stdDeviation="0.958329" result="effect1_foregroundBlur_71_1012"/>
</filter>
<filter id="filter2_f_71_1012" x="121.117" y="246.162" width="65.1142" height="49.093" filterUnits="userSpaceOnUse" color-interpolation-filters="sRGB">
<feFlood flood-opacity="0" result="BackgroundImageFix"/>
<feBlend mode="normal" in="SourceGraphic" in2="BackgroundImageFix" result="shape"/>
<feGaussianBlur stdDeviation="3.0581" result="effect1_foregroundBlur_71_1012"/>
</filter>
<filter id="filter3_f_71_1012" x="284.662" y="407.311" width="23.8238" height="16.9705" filterUnits="userSpaceOnUse" color-interpolation-filters="sRGB">
<feFlood flood-opacity="0" result="BackgroundImageFix"/>
<feBlend mode="normal" in="SourceGraphic" in2="BackgroundImageFix" result="shape"/>
<feGaussianBlur stdDeviation="0.958329" result="effect1_foregroundBlur_71_1012"/>
</filter>
<radialGradient id="paint0_radial_71_1012" cx="0" cy="0" r="1" gradientUnits="userSpaceOnUse" gradientTransform="translate(236.469 246.392) rotate(141.401) scale(188.025 185.431)">
<stop stop-color="#BBC34C"/>
<stop offset="0.468009" stop-color="#A4AC36"/>
<stop offset="0.721637" stop-color="#94A32D"/>
<stop offset="1" stop-color="#779A20"/>
</radialGradient>
<linearGradient id="paint1_linear_71_1012" x1="165.29" y1="423.166" x2="181.537" y2="201.889" gradientUnits="userSpaceOnUse">
<stop stop-color="#6ABCB2"/>
<stop offset="1" stop-color="#8ED2C9"/>
</linearGradient>
<radialGradient id="paint2_radial_71_1012" cx="0" cy="0" r="1" gradientUnits="userSpaceOnUse" gradientTransform="translate(70.1991 369.341) rotate(-2.71771) scale(56.5005 111.332)">
<stop stop-color="#A6DFD7"/>
<stop offset="0.62315" stop-color="#5FC4B6"/>
<stop offset="0.802206" stop-color="#50B0A4"/>
<stop offset="1" stop-color="#469E94"/>
</radialGradient>
<radialGradient id="paint3_radial_71_1012" cx="0" cy="0" r="1" gradientUnits="userSpaceOnUse" gradientTransform="translate(291.992 224.581) rotate(139.321) scale(25.1605 57.771)">
<stop stop-color="#A6DFD7"/>
<stop offset="0.535496" stop-color="#5FC4B6"/>
<stop offset="0.802206" stop-color="#50B0A4"/>
<stop offset="1" stop-color="#469E94"/>
</radialGradient>
<radialGradient id="paint4_radial_71_1012" cx="0" cy="0" r="1" gradientUnits="userSpaceOnUse" gradientTransform="translate(82.3891 430.858) scale(21.1744 21.684)">
<stop stop-color="#91A846"/>
<stop offset="0.385442" stop-color="#8AA241"/>
<stop offset="1" stop-color="#335F04"/>
</radialGradient>
<radialGradient id="paint5_radial_71_1012" cx="0" cy="0" r="1" gradientUnits="userSpaceOnUse" gradientTransform="translate(97.7515 455.752) scale(28.3738 27.1794)">
<stop stop-color="#91A846"/>
<stop offset="0.385442" stop-color="#8AA241"/>
<stop offset="1" stop-color="#335F04"/>
</radialGradient>
<linearGradient id="paint6_linear_71_1012" x1="165.251" y1="250.725" x2="168.037" y2="259.674" gradientUnits="userSpaceOnUse">
<stop stop-color="#CCCCCC"/>
<stop offset="1" stop-color="#707070"/>
</linearGradient>
<linearGradient id="paint7_linear_71_1012" x1="139.439" y1="265.969" x2="147.353" y2="279.376" gradientUnits="userSpaceOnUse">
<stop stop-color="#CCCCCC"/>
<stop offset="1" stop-color="#707070"/>
</linearGradient>
<linearGradient id="paint8_linear_71_1012" x1="286.959" y1="431.727" x2="284.681" y2="427.107" gradientUnits="userSpaceOnUse">
<stop stop-color="#CCCCCC"/>
<stop offset="1" stop-color="#707070"/>
</linearGradient>
<linearGradient id="paint9_linear_71_1012" x1="301.174" y1="422.157" x2="296.635" y2="415.961" gradientUnits="userSpaceOnUse">
<stop stop-color="#CCCCCC"/>
<stop offset="1" stop-color="#707070"/>
</linearGradient>
<linearGradient id="paint10_linear_71_1012" x1="287.206" y1="423.822" x2="284.348" y2="420.777" gradientUnits="userSpaceOnUse">
<stop stop-color="#CCCCCC"/>
<stop offset="1" stop-color="#707070"/>
</linearGradient>
<clipPath id="clip0_71_1012">
<rect width="430" height="511" fill="white"/>
</clipPath>
</defs>
</svg>
